<?xml version="1.0" standalone="no"?>
<!DOCTYPE svg PUBLIC "-//W3C//DTD SVG 20010904//EN"
 "http://www.w3.org/TR/2001/REC-SVG-20010904/DTD/svg10.dtd">
<svg version="1.0" xmlns="http://www.w3.org/2000/svg"
 width="800.000000pt" height="800.000000pt" viewBox="0 0 800.000000 800.000000"
 preserveAspectRatio="xMidYMid meet">
<metadata>
Created by potrace 1.14, written by Peter Selinger 2001-2017
</metadata>
<g transform="translate(0.000000,800.000000) scale(0.100000,-0.100000)"
fill="#000000" stroke="none">
<path d="M560 7976 c-103 -31 -141 -49 -220 -101 -140 -93 -263 -252 -314
-407 l-26 -77 0 -3386 0 -3386 26 -77 c38 -114 96 -206 193 -303 129 -128 267
-200 441 -228 91 -15 6589 -15 6680 0 174 28 312 100 441 228 97 97 155 189
193 303 l26 77 0 3386 0 3386 -26 77 c-38 114 -96 206 -193 303 -97 97 -186
154 -306 196 l-80 28 -3380 2 -3380 2 -75 -23z m4385 -1225 c272 -61 502 -178
715 -363 230 -199 429 -502 529 -804 170 -510 110 -1079 -160 -1529 -138 -230
-380 -458 -602 -566 -37 -19 -65 -39 -63 -45 2 -6 266 -455 585 -998 320 -543
581 -989 581 -991 0 -3 -249 -5 -553 -5 l-554 0 -529 890 -529 890 -502 0
-503 0 0 -890 0 -890 -505 0 -505 0 0 2665 0 2666 1248 -4 1247 -3 100 -23z"/>
<path d="M3360 5010 l0 -860 668 0 c715 0 724 1 825 51 209 105 370 368 407
663 16 123 8 282 -20 396 -53 219 -209 431 -395 535 -129 72 -97 69 -827 73
l-658 3 0 -861z"/>
</g>
</svg>
